<svg width="78.000000" height="23.000000" viewBox="0 0 78 23" fill="none" xmlns="http://www.w3.org/2000/svg" xmlns:xlink="http://www.w3.org/1999/xlink">
	<desc>
			Created with Pixso.
	</desc>
	<defs>
		<clipPath id="clip1_1408">
			<rect id="3 71" width="78.000000" height="23.000000" fill="white" fill-opacity="0"/>
		</clipPath>
	</defs>
	<rect id="3 71" width="78.000000" height="23.000000" fill="#FFFFFF" fill-opacity="0"/>
	<g clip-path="url(#clip1_1408)">
		<g opacity="0.500000">
			<g opacity="0.500000">
				<path id="Vector" d="M43.44 3.3L38.58 13.8L38.08 13.8L38.08 1.04L31.14 1.04L31.14 22.51L36.9 22.51C38.46 22.51 39.85 21.61 40.52 20.21L45.41 9.74L45.9 9.74L45.9 22.51L52.84 22.51L52.84 1.04L47 1.04C45.49 1.04 44.08 1.94 43.44 3.3ZM17.63 3.85L14.76 13.8L14.27 13.8L11.38 3.85C11.14 3.04 10.64 2.32 9.97 1.82C9.29 1.31 8.46 1.04 7.62 1.04L0.76 1.04L0.76 22.51L7.7 22.51L7.7 9.74L8.2 9.74L12.19 22.51L16.82 22.51L20.81 9.74L21.3 9.74L21.3 22.51L28.25 22.51L28.25 1.04L21.39 1.04C19.65 1.04 18.09 2.17 17.63 3.85L17.63 3.85ZM55.74 10.61L55.74 22.51L62.68 22.51L62.68 15.54L70.15 15.54C71.68 15.55 73.17 15.08 74.43 14.19C75.68 13.31 76.63 12.06 77.15 10.61L55.74 10.61ZM69.94 1.04L54.49 1.04C55.45 6.14 59.9 9.74 65.25 9.74L77.26 9.74C77.36 9.25 77.41 8.74 77.41 8.23C77.41 4.08 74.08 1.04 69.94 1.04L69.94 1.04Z" fill="#FFFFFF" fill-opacity="1.000000" fill-rule="nonzero"/>
			</g>
		</g>
	</g>
</svg>
