<svg width="80.000000" height="86.618713" viewBox="0 0 80 86.6187" fill="none" xmlns="http://www.w3.org/2000/svg" xmlns:xlink="http://www.w3.org/1999/xlink">
	<desc>
			Created with Pixso.
	</desc>
	<defs>
		<clipPath id="clip1_1024">
			<rect width="80.000000" height="86.618706" fill="white" fill-opacity="0"/>
		</clipPath>
	</defs>
	<rect width="80.000000" height="86.618706" fill="#FFFFFF" fill-opacity="0"/>
	<g clip-path="url(#clip1_1024)">
		<path d="M77.3 59.69C74.36 58.23 71.52 56.57 68.59 55.08C67.72 54.63 67.42 54.14 67.43 53.16C67.48 47.58 67.46 42 67.45 36.42C67.44 33.63 65.41 30.24 61.43 30.49C61.16 30.5 60.89 30.49 60.57 30.49C60.57 29.32 60.62 28.28 60.55 27.24C60.43 25.36 60.46 23.44 60.05 21.62C57.56 10.75 50.92 3.5 40.01 0.86C29.11 -1.77 19.87 1.65 12.72 10.22C8.76 14.96 6.95 20.56 6.92 26.72C6.91 27.95 6.92 29.18 6.92 30.49C6.41 30.49 5.99 30.49 5.57 30.49C3.66 30.49 2.2 31.34 1.13 32.88C0.37 33.98 0.03 35.22 0.02 36.55C0.01 39.47 0.01 58.73 0.02 63.25C0 67.05 -0.04 70.85 0.07 74.64C0.17 78.25 2.55 80.37 6.16 80.37C22.98 80.37 39.81 80.37 56.63 80.35C57.25 80.35 57.65 80.53 58.05 81.03C59.95 83.42 62.2 85.39 65.06 86.62L66.43 86.62C67.41 86.06 68.44 85.59 69.35 84.95C72.45 82.76 74.65 79.8 76.45 76.53C78.56 72.72 79.84 68.69 79.99 64.31C80.06 62.16 79.3 60.68 77.3 59.69L77.3 59.69ZM21.42 7.01C29.79 1.88 38.49 2.03 46.71 7.43C54.93 12.83 57.8 20.88 57.03 30.44L52.31 30.44C52.31 28.7 52.41 27.01 52.3 25.33C51.64 16.03 43.92 8.53 34.68 8.17C25.09 7.79 16.78 14.49 15.32 23.79C15.15 24.85 15.14 25.93 15.11 26.99C15.07 28.12 15.1 29.24 15.1 30.43L10.41 30.43C9.68 20.56 12.73 12.33 21.42 7.01L21.42 7.01ZM48.79 30.46L18.65 30.46C17.21 20.21 23.25 12.79 31.79 11.73C40.26 10.67 47.44 16.14 48.74 24.5C49.04 26.42 48.78 28.42 48.78 30.46L48.79 30.46ZM54.44 76.96C38.21 76.96 21.99 76.96 5.76 76.97C4.76 76.97 4.09 76.55 3.79 75.68C3.57 75.06 3.48 74.37 3.48 73.7C3.45 70.11 3.47 66.51 3.46 62.91C3.47 57.99 3.46 39.85 3.46 37.21C3.46 36.81 3.46 36.41 3.51 36.03C3.69 34.64 4.52 33.89 5.88 33.89C24.46 33.89 43.05 33.89 61.63 33.89C62.77 33.89 63.46 34.34 63.8 35.41C63.96 35.94 64.02 36.52 64.02 37.08C64.04 42.57 64.02 48.07 64.05 53.56C64.05 54.2 63.89 54.55 63.29 54.86C60.25 56.44 57.27 58.16 54.2 59.67C52.12 60.7 51.37 62.25 51.48 64.45C51.62 67.12 52.09 69.71 53.05 72.2C53.67 73.79 54.41 75.33 55.13 76.96L54.44 76.96L54.44 76.96ZM76.56 64.32C76.22 69.95 74.12 74.55 70.91 78.71C69.67 80.31 68.22 81.67 66.5 82.78C65.94 83.14 65.52 83.11 64.97 82.77C61.96 80.86 59.87 78.15 58.16 75.12C56.25 71.74 55.02 68.15 54.93 64.22C54.92 63.44 55.17 63.02 55.87 62.66C58.96 61.05 62.03 59.4 65.08 57.74C65.57 57.47 65.93 57.47 66.41 57.73C69.34 59.33 72.27 60.93 75.25 62.46C76.22 62.96 76.87 63.48 76.56 64.32Z" fill="#357EFE" fill-opacity="1.000000" fill-rule="nonzero"/>
		<path d="M27.37 55.31C31.5 51.57 30.91 45.96 27.91 42.81C24.73 39.49 19.41 39.18 15.89 42.18C14.21 43.61 13.18 45.43 12.9 47.61C12.5 50.74 13.58 53.34 15.94 55.49C15.67 55.65 15.48 55.77 15.3 55.89C11.62 58.24 9.39 61.49 9.05 65.89C8.84 68.59 10.72 70.72 13.42 70.74C18.85 70.77 24.27 70.77 29.69 70.74C32.25 70.72 34.07 68.83 34.06 66.31C34.05 63.59 33.16 61.13 31.4 59.09C30.22 57.72 28.75 56.59 27.38 55.31L27.37 55.31ZM21.57 43.5C24.52 43.52 26.9 45.93 26.87 48.87C26.84 51.75 24.39 54.12 21.49 54.07C18.55 54.02 16.24 51.67 16.25 48.75C16.27 45.84 18.66 43.5 21.57 43.5ZM29.35 67.35C26.74 67.35 24.12 67.35 21.51 67.35C18.96 67.35 16.4 67.35 13.85 67.35C12.7 67.35 12.45 67.06 12.51 65.93C12.7 62.31 15.74 58.76 19.5 57.76C22.99 56.83 26.9 58.46 29.13 61.77C30 63.06 30.54 64.46 30.62 66.02C30.67 67.03 30.36 67.35 29.35 67.35L29.35 67.35Z" fill="#357EFE" fill-opacity="1.000000" fill-rule="nonzero"/>
		<path d="M38.19 48.57C40.63 48.58 43.07 48.57 45.52 48.57C47.93 48.57 50.34 48.58 52.76 48.57C54.04 48.57 54.84 47.89 54.82 46.84C54.8 45.83 54.02 45.18 52.78 45.18C47.92 45.18 43.07 45.18 38.21 45.18C36.95 45.18 36.22 45.81 36.21 46.87C36.21 47.93 36.94 48.57 38.19 48.57Z" fill="#357EFE" fill-opacity="1.000000" fill-rule="nonzero"/>
		<path d="M48.11 54.31C44.8 54.31 41.48 54.31 38.16 54.31C36.92 54.32 36.19 54.97 36.21 56.04C36.23 57.06 36.95 57.69 38.14 57.7C39.82 57.71 41.49 57.7 43.16 57.7C44.8 57.7 46.45 57.71 48.09 57.7C49.35 57.7 50.08 57.07 50.09 56.02C50.09 54.96 49.36 54.32 48.11 54.31Z" fill="#357EFE" fill-opacity="1.000000" fill-rule="nonzero"/>
		<path d="M69.42 65.94C69.17 66.17 68.95 66.43 68.7 66.66C67.27 67.99 65.84 69.31 64.34 70.7C64.2 70.58 63.96 70.35 63.71 70.12C63.46 69.89 63.22 69.65 62.96 69.43C62.09 68.67 61.07 68.67 60.39 69.43C59.73 70.16 59.8 71.13 60.61 71.91C61.49 72.75 62.38 73.58 63.29 74.39C64.22 75.22 65.08 75.19 65.98 74.3C66.65 73.64 67.3 72.97 67.95 72.3C69.26 70.97 70.58 69.65 71.86 68.3C72.59 67.53 72.55 66.55 71.86 65.88C71.18 65.22 70.18 65.24 69.42 65.94Z" fill="#357EFE" fill-opacity="1.000000" fill-rule="nonzero"/>
	</g>
</svg>
