<svg width="80.000000" height="82.051300" viewBox="0 0 80 82.0513" fill="none" xmlns="http://www.w3.org/2000/svg" xmlns:xlink="http://www.w3.org/1999/xlink">
	<desc>
			Created with Pixso.
	</desc>
	<defs>
		<clipPath id="clip1_1012">
			<rect width="80.000000" height="82.051292" fill="white" fill-opacity="0"/>
		</clipPath>
	</defs>
	<rect width="80.000000" height="82.051292" fill="#FFFFFF" fill-opacity="0"/>
	<g clip-path="url(#clip1_1012)">
		<path d="M0 24.52C0.49 22.09 1.88 20.11 3.12 18.05C5.85 13.54 8.62 9.05 11.32 4.52C13.15 1.45 15.77 -0.01 19.28 3.05e-5C33.08 0.02 46.87 0.02 60.66 3.05e-5C64.17 -0.01 66.79 1.45 68.63 4.52C71.77 9.77 74.95 15 78.16 20.22C79.39 22.22 80.07 24.32 79.97 26.71C79.89 28.45 79.93 30.19 79.96 31.92C80.01 34.83 79.01 37.23 76.82 39.1C76.76 39.15 76.72 39.22 76.72 39.23C77.44 40.15 78.31 40.97 78.8 41.99C79.36 43.13 79.8 44.43 79.88 45.69C80.05 48.27 80.01 50.87 79.9 53.45C79.85 54.52 79.48 55.59 79.11 56.6C78.76 57.55 77.83 57.88 76.99 57.54C76.15 57.21 75.71 56.33 76.07 55.37C76.61 53.96 76.65 52.52 76.63 51.05C76.6 49.26 76.68 47.46 76.54 45.69C76.31 42.97 74.32 41.14 71.66 41.03C71.47 41.02 71.29 41.03 71.11 41.03C50.34 41.03 29.57 41.03 8.81 41.03C6.09 41.03 4.17 42.41 3.51 44.85C3.47 45 3.42 45.16 3.42 45.32C3.4 47.96 3.24 50.61 3.39 53.24C3.57 56.33 5.67 58.12 8.78 58.13C13.41 58.14 18.04 58.13 22.68 58.13C26.95 58.13 31.21 58.13 35.48 58.13C35.82 58.13 36.16 58.13 36.49 58.19C37.23 58.31 37.74 58.91 37.81 59.66C37.88 60.47 37.47 61.17 36.73 61.4C36.36 61.51 35.96 61.53 35.58 61.53C26.63 61.54 17.67 61.54 8.72 61.54C6.07 61.54 4.16 62.96 3.51 65.37C3.47 65.52 3.42 65.68 3.42 65.84C3.39 68.45 3.23 71.08 3.38 73.68C3.55 76.82 5.64 78.63 8.78 78.64C15.63 78.65 22.47 78.64 29.32 78.64C29.58 78.64 29.84 78.64 30.1 78.65C31.01 78.71 31.54 79.14 31.75 79.96C31.94 80.74 31.63 81.41 30.85 81.88C30.76 81.94 30.69 82 30.6 82.05L7.18 82.05C7.01 82 6.85 81.93 6.68 81.89C3.57 81.13 1.48 79.19 0.41 76.11C0.24 75.64 0.13 75.16 0 74.68L0 65.55C0.5 63.3 1.46 61.31 3.43 59.82C2.86 59.28 2.32 58.83 1.86 58.3C0.82 57.12 0.41 55.64 0 54.17L0 45.03C0.5 42.78 1.46 40.8 3.43 39.3C2.86 38.76 2.32 38.31 1.85 37.79C0.82 36.62 0.41 35.13 0 33.66L0 24.52ZM39.97 20.52C29.64 20.52 19.31 20.52 8.98 20.52C8.52 20.52 8.04 20.53 7.58 20.6C5.3 20.96 3.55 22.74 3.42 25.11C3.28 27.61 3.32 30.12 3.36 32.63C3.37 33.32 3.57 34.07 3.86 34.7C4.89 36.87 6.72 37.63 8.98 37.63C29.64 37.62 50.3 37.62 70.96 37.62C71.14 37.62 71.32 37.63 71.5 37.62C74.15 37.49 76.34 35.75 76.49 33.34C76.66 30.66 76.56 27.96 76.56 25.27C76.56 24.95 76.5 24.63 76.42 24.32C75.77 21.94 73.87 20.52 71.27 20.52C60.84 20.51 50.4 20.52 39.97 20.52L39.97 20.52ZM7.63 17.09L72.29 17.09C72.12 16.79 72 16.57 71.86 16.34C69.85 13.01 67.79 9.71 65.82 6.35C64.63 4.32 62.96 3.39 60.66 3.4C54.06 3.44 47.45 3.41 40.84 3.41C33.6 3.41 26.37 3.42 19.14 3.41C16.97 3.4 15.35 4.29 14.21 6.2C12.42 9.23 10.57 12.23 8.74 15.25C8.39 15.83 8.04 16.42 7.63 17.09L7.63 17.09Z" fill="#357EFE" fill-opacity="1.000000" fill-rule="nonzero"/>
		<path d="M40.6 82.05C38.99 81.67 37.51 81.07 36.21 79.95C32.3 76.58 32.38 70 36.47 66.87C37.36 66.18 38.46 65.76 39.5 65.29C39.87 65.12 40.08 64.99 40.14 64.54C41.37 56.07 48.76 50.3 56.98 51.45C61 52.02 64.27 54.01 66.75 57.31C67.15 57.84 67.48 58.17 68.25 58.17C74.32 58.09 79.41 62.89 79.92 69.1C80.43 75.31 76.1 80.93 70.07 81.89C69.92 81.92 69.79 81.99 69.64 82.05L40.6 82.05ZM55.16 78.64C59.4 78.64 63.64 78.64 67.88 78.64C67.93 78.64 67.99 78.64 68.04 78.64C73.42 78.58 77.19 74.2 76.52 68.79C76 64.6 71.82 61.06 67.86 61.61C66.29 61.82 65.36 61.39 64.52 60.01C62.14 56.11 57.38 54.06 52.97 54.89C47.62 55.89 43.77 60.29 43.36 65.87C43.2 67.94 42.94 68.21 40.95 68.44C38.14 68.75 36.08 71.83 36.79 74.66C37.41 77.16 39.33 78.63 42.05 78.63C46.42 78.65 50.79 78.64 55.16 78.64Z" fill="#357EFE" fill-opacity="1.000000" fill-rule="nonzero"/>
		<path d="M55.01 44.43C59.22 44.43 63.44 44.43 67.65 44.43C69.13 44.43 69.92 45.02 69.94 46.12C69.97 47.25 69.14 47.88 67.63 47.88C59.18 47.88 50.73 47.88 42.28 47.88C40.8 47.88 40.01 47.29 39.99 46.19C39.96 45.06 40.79 44.43 42.3 44.43C46.53 44.43 50.77 44.43 55.01 44.43Z" fill="#357EFE" fill-opacity="1.000000" fill-rule="nonzero"/>
		<path d="M11.68 54.68C8.91 54.69 6.67 52.4 6.68 49.56C6.69 46.76 8.9 44.47 11.63 44.45C14.35 44.42 16.67 46.8 16.65 49.59C16.64 52.38 14.41 54.66 11.68 54.68L11.68 54.68ZM13.29 49.58C13.3 48.65 12.59 47.91 11.68 47.9C10.76 47.88 9.98 48.68 10 49.61C10.02 50.49 10.81 51.28 11.67 51.27C12.55 51.26 13.29 50.49 13.29 49.58L13.29 49.58Z" fill="#357EFE" fill-opacity="1.000000" fill-rule="nonzero"/>
		<path d="M11.64 75.19C8.87 75.18 6.65 72.87 6.68 70.03C6.71 67.23 8.96 64.94 11.67 64.96C14.38 64.98 16.62 67.26 16.65 70.06C16.68 72.85 14.4 75.2 11.64 75.19L11.64 75.19ZM13.29 70.07C13.29 69.15 12.57 68.41 11.67 68.41C10.78 68.4 10.02 69.15 10 70.06C9.98 70.97 10.79 71.8 11.68 71.78C12.57 71.76 13.3 70.99 13.29 70.08L13.29 70.07Z" fill="#357EFE" fill-opacity="1.000000" fill-rule="nonzero"/>
		<path d="M54.96 23.92C59.17 23.92 63.38 23.92 67.59 23.92C69.13 23.92 69.94 24.51 69.94 25.64C69.95 26.76 69.13 27.36 67.61 27.36C59.19 27.36 50.76 27.36 42.34 27.36C40.8 27.36 39.99 26.77 39.99 25.65C39.98 24.53 40.8 23.92 42.32 23.92C46.53 23.92 50.74 23.92 54.96 23.92Z" fill="#357EFE" fill-opacity="1.000000" fill-rule="nonzero"/>
		<path d="M54.92 34.18C50.76 34.18 46.6 34.18 42.43 34.18C42.2 34.18 41.96 34.19 41.73 34.17C40.7 34.11 40 33.43 39.99 32.5C39.97 31.56 40.67 30.85 41.7 30.78C41.88 30.76 42.06 30.77 42.24 30.77C50.73 30.77 59.21 30.77 67.69 30.78C68.08 30.78 68.48 30.8 68.84 30.92C69.53 31.13 69.99 31.88 69.94 32.58C69.88 33.35 69.32 34.01 68.58 34.13C68.25 34.18 67.91 34.18 67.57 34.18C63.35 34.18 59.14 34.18 54.92 34.18L54.92 34.18Z" fill="#357EFE" fill-opacity="1.000000" fill-rule="nonzero"/>
		<path d="M11.68 34.17C8.91 34.18 6.67 31.89 6.68 29.05C6.69 26.25 8.92 23.95 11.63 23.94C14.36 23.92 16.66 26.28 16.65 29.08C16.64 31.86 14.4 34.16 11.68 34.17ZM11.66 27.39C10.77 27.38 10.02 28.13 10 29.04C9.98 29.95 10.8 30.78 11.69 30.76C12.57 30.74 13.3 29.96 13.29 29.05C13.28 28.12 12.57 27.39 11.66 27.39Z" fill="#357EFE" fill-opacity="1.000000" fill-rule="nonzero"/>
	</g>
</svg>
