<svg width="78.558182" height="25.201904" viewBox="0 0 78.5582 25.2019" fill="none" xmlns="http://www.w3.org/2000/svg" xmlns:xlink="http://www.w3.org/1999/xlink">
	<desc>
			Created with Pixso.
	</desc>
	<defs/>
	<g opacity="0.500000">
		<path id="Vector" d="M51.16 0C45.59 0 40.6 2.86 40.6 8.15C40.6 14.21 49.44 14.63 49.44 17.68C49.44 18.96 47.96 20.11 45.42 20.11C41.82 20.11 39.13 18.5 39.13 18.5L37.98 23.84C37.98 23.84 41.08 25.2 45.19 25.2C51.29 25.2 56.09 22.19 56.09 16.81C56.09 10.4 47.21 10 47.21 7.17C47.21 6.16 48.43 5.06 50.96 5.06C53.81 5.06 56.14 6.22 56.14 6.22L57.27 1.07C57.27 1.08 54.74 0 51.17 0L51.16 0ZM0.13 0.39L0 1.16C0 1.16 2.34 1.59 4.45 2.44C7.18 3.41 7.37 3.98 7.83 5.74L12.82 24.8L19.51 24.8L29.83 0.39L23.16 0.39L16.53 16.98L13.82 2.92C13.58 1.31 12.32 0.39 10.78 0.39L0.13 0.39L0.13 0.39ZM32.52 0.39L27.28 24.79L33.65 24.79L38.86 0.39L32.52 0.39L32.52 0.39ZM68.04 0.39C66.51 0.39 65.69 1.2 65.09 2.62L55.76 24.79L62.44 24.79L63.73 21.1L71.87 21.1L72.66 24.79L78.55 24.79L73.41 0.39L68.04 0.39L68.04 0.39ZM68.91 6.98L70.89 16.14L65.58 16.14L68.91 6.98Z" fill="#FFFFFF" fill-opacity="1.000000" fill-rule="nonzero"/>
	</g>
</svg>
